<svg xmlns="http://www.w3.org/2000/svg" width="256" height="256" viewBox="0 0 100 100"><rect width="100" height="100" rx="20" fill="#000000"></rect><path fill="#640000" d="M45.97 61.70L32.84 61.70L32.84 89.65Q32.06 89.91 30.76 90.23Q29.46 90.56 27.90 90.56L27.90 90.56Q22.18 90.56 22.18 85.75L22.18 85.75L22.18 16.59Q22.18 14.51 23.22 13.40Q24.26 12.30 26.47 11.65L26.47 11.65Q30.24 10.48 35.63 9.96Q41.03 9.44 46.10 9.44L46.10 9.44Q62.61 9.44 70.22 16.39Q77.82 23.35 77.82 35.18L77.82 35.18Q77.82 47.27 70.02 54.48Q62.22 61.70 45.97 61.70L45.97 61.70ZM32.71 52.86L45.32 52.86Q55.72 52.86 61.44 48.57Q67.16 44.28 67.16 35.31L67.16 35.31Q67.16 26.47 61.63 22.38Q56.11 18.28 45.84 18.28L45.84 18.28Q42.33 18.28 38.88 18.60Q35.44 18.93 32.71 19.45L32.71 19.45L32.71 52.86Z"></path></svg>